ffmpeg started on 2026-03-28 at 15:57:06
Report written to "D:\Convert\FFMetrics\reports\ssim_report-6.txt"
Log level: 32
Command line:
ffmpeg -hide_banner -nostdin -r 24000/1001 -i "F:\\\xc0\xed\xe8\xec\xe5\\\xce\xed\xe3\xee\xe8\xed\xe3\xe8\\!_40_\xce\xf1\xe5\xed\xfc_2025\\JamClub\\\xcc\xeb\xe0\xe4\xf8\xe0\xff \xf1\xe5\xf1\xf2\xf0\xe0 \xec\xee\xe5\xe3\xee \xe4\xf0\xf3\xe3\xe0 \xe4\xee\xf1\xe0\xe6\xe4\xe0\xe5\xf2\\JamClub_Tomodachi_no_Imouto_ga_Ore_ni_dake_Uzai_04_1080p_HEVC.mkv" -r 24000/1001 -i "F:\\\xc0\xed\xe8\xec\xe5\\\xce\xed\xe3\xee\xe8\xed\xe3\xe8\\!_40_\xce\xf1\xe5\xed\xfc_2025\\JamClub\\\xcc\xeb\xe0\xe4\xf8\xe0\xff \xf1\xe5\xf1\xf2\xf0\xe0 \xec\xee\xe5\xe3\xee \xe4\xf0\xf3\xe3\xe0 \xe4\xee\xf1\xe0\xe6\xe4\xe0\xe5\xf2\\JamClub_Tomodachi_no_Imouto_ga_Ore_ni_dake_Uzai_04_1080p.mp4" -lavfi "[0:v]settb=AVTB,setpts=PTS-STARTPTS,format=pix_fmts=yuv420p10le,fps=24000/1001,scale=1920:1080:flags=lanczos:param0=3:out_range=limited:out_color_matrix=bt709:out_chroma_loc=left,setsar=1/1,setdar=(1920/1080)*(1/1),colorspace=format=yuv420p10:range=tv:primaries=bt709:trc=bt709:space=bt709:fast=0[main];[1:v]settb=AVTB,setpts=PTS-STARTPTS,format=pix_fmts=yuv420p,fps=24000/1001,scale=1920:1080:flags=lanczos:param0=3:out_range=limited:out_color_matrix=bt709:out_chroma_loc=left,setsar=1/1,setdar=(1920/1080)*(1/1),colorspace=format=yuv420p:range=tv:primaries=bt709:trc=bt709:space=bt709:fast=0[ref];[main][ref]ssim=eof_action=endall:stats_file='D\\:/Convert/FFMetrics/logs/ssim_logfile-6.txt'" -f null -
Input #0, matroska,webm, from 'F:\Аниме\Онгоинги\!_40_Осень_2025\JamClub\Младшая сестра моего друга досаждает\JamClub_Tomodachi_no_Imouto_ga_Ore_ni_dake_Uzai_04_1080p_HEVC.mkv':
  Metadata:
    COMPATIBLE_BRANDS: isomiso2avc1mp41
    MAJOR_BRAND     : isom
    MINOR_VERSION   : 512
    ENCODER         : Lavf61.7.100
  Duration: 00:23:49.44, start: -0.021000, bitrate: 941 kb/s
  Stream #0:0: Video: hevc (Main 10), yuv420p10le(tv, bt709, progressive), 1920x1080 [SAR 1:1 DAR 16:9], 23.98 fps, 23.98 tbr, 1k tbn (default)
      Metadata:
        HANDLER_NAME    : VideoHandler
        VENDOR_ID       : [0][0][0][0]
        ENCODER         : Lavc61.19.100 libx265
        BPS             : 745217
        DURATION        : 00:23:49.344708333
        NUMBER_OF_FRAMES: 34270
        NUMBER_OF_BYTES : 133146587
        _STATISTICS_WRITING_APP: mkvpropedit v94.0 ('Initiate') 64-bit
        _STATISTICS_WRITING_DATE_UTC: 2026-03-28 10:16:14
        _STATISTICS_TAGS: BPS DURATION NUMBER_OF_FRAMES NUMBER_OF_BYTES
  Stream #0:1(eng): Audio: aac (LC), 48000 Hz, stereo, fltp (default)
      Metadata:
        HANDLER_NAME    : SoundHandler
        VENDOR_ID       : [0][0][0][0]
        ENCODER         : Lavc61.19.100 aac
        BPS             : 192056
        DURATION        : 00:23:49.421000000
        NUMBER_OF_FRAMES: 67005
        NUMBER_OF_BYTES : 34316250
        _STATISTICS_WRITING_APP: mkvpropedit v94.0 ('Initiate') 64-bit
        _STATISTICS_WRITING_DATE_UTC: 2026-03-28 10:16:14
        _STATISTICS_TAGS: BPS DURATION NUMBER_OF_FRAMES NUMBER_OF_BYTES
Input #1, mov,mp4,m4a,3gp,3g2,mj2, from 'F:\Аниме\Онгоинги\!_40_Осень_2025\JamClub\Младшая сестра моего друга досаждает\JamClub_Tomodachi_no_Imouto_ga_Ore_ni_dake_Uzai_04_1080p.mp4':
  Metadata:
    major_brand     : isom
    minor_version   : 512
    compatible_brands: isomiso2avc1mp41
    encoder         : Lavf60.16.100
  Duration: 00:23:49.42, start: 0.000000, bitrate: 3182 kb/s
  Stream #1:0[0x1](und): Video: h264 (High) (avc1 / 0x31637661), yuv420p(tv, bt709, progressive), 1920x1080 [SAR 1:1 DAR 16:9], 2984 kb/s, 23.98 fps, 23.98 tbr, 90k tbn (default)
      Metadata:
        handler_name    : VideoHandler
        vendor_id       : [0][0][0][0]
  Stream #1:1[0x2](eng): Audio: aac (LC) (mp4a / 0x6134706D), 48000 Hz, stereo, fltp, 191 kb/s (default)
      Metadata:
        handler_name    : SoundHandler
        vendor_id       : [0][0][0][0]
Stream mapping:
  Stream #0:0 (hevc) -> settb:default
  Stream #1:0 (h264) -> settb:default
  ssim:default -> Stream #0:0 (wrapped_avframe)
  Stream #0:1 -> #0:1 (aac (native) -> pcm_s16le (native))
Output #0, null, to 'pipe:':
  Metadata:
    COMPATIBLE_BRANDS: isomiso2avc1mp41
    MAJOR_BRAND     : isom
    MINOR_VERSION   : 512
    encoder         : Lavf61.7.100
  Stream #0:0: Video: wrapped_avframe, yuv420p10le(tv, bt709, progressive), 1920x1080 [SAR 1:1 DAR 16:9], q=2-31, 200 kb/s, 23.98 fps, 23.98 tbn
      Metadata:
        encoder         : Lavc61.19.100 wrapped_avframe
  Stream #0:1(eng): Audio: pcm_s16le, 48000 Hz, stereo, s16, 1536 kb/s (default)
      Metadata:
        HANDLER_NAME    : SoundHandler
        VENDOR_ID       : [0][0][0][0]
        _STATISTICS_TAGS: BPS DURATION NUMBER_OF_FRAMES NUMBER_OF_BYTES
        BPS             : 192056
        DURATION        : 00:23:49.421000000
        NUMBER_OF_FRAMES: 67005
        NUMBER_OF_BYTES : 34316250
        _STATISTICS_WRITING_APP: mkvpropedit v94.0 ('Initiate') 64-bit
        _STATISTICS_WRITING_DATE_UTC: 2026-03-28 10:16:14
        encoder         : Lavc61.19.100 pcm_s16le
frame=  102 fps=0.0 q=-0.0 size=N/A time=00:00:04.25 bitrate=N/A speed=8.23x    frame=  242 fps=235 q=-0.0 size=N/A time=00:00:10.09 bitrate=N/A speed=9.81x    frame=  412 fps=265 q=-0.0 size=N/A time=00:00:17.18 bitrate=N/A speed=  11x    frame=  590 fps=285 q=-0.0 size=N/A time=00:00:24.60 bitrate=N/A speed=11.9x    frame=  778 fps=302 q=-0.0 size=N/A time=00:00:32.44 bitrate=N/A speed=12.6x    frame=  969 fps=313 q=-0.0 size=N/A time=00:00:40.41 bitrate=N/A speed=13.1x    frame= 1158 fps=320 q=-0.0 size=N/A time=00:00:48.29 bitrate=N/A speed=13.3x    frame= 1303 fps=315 q=-0.0 size=N/A time=00:00:54.34 bitrate=N/A speed=13.2x    frame= 1448 fps=312 q=-0.0 size=N/A time=00:01:00.39 bitrate=N/A speed=  13x    frame= 1618 fps=314 q=-0.0 size=N/A time=00:01:07.48 bitrate=N/A speed=13.1x    frame= 1776 fps=313 q=-0.0 size=N/A time=00:01:14.07 bitrate=N/A speed=  13x    frame= 1955 fps=316 q=-0.0 size=N/A time=00:01:21.53 bitrate=N/A speed=13.2x    frame= 2108 fps=314 q=-0.0 size=N/A time=00:01:27.92 bitrate=N/A speed=13.1x    frame= 2293 fps=318 q=-0.0 size=N/A time=00:01:35.63 bitrate=N/A speed=13.3x    frame= 2472 fps=319 q=-0.0 size=N/A time=00:01:43.10 bitrate=N/A speed=13.3x    frame= 2628 fps=318 q=-0.0 size=N/A time=00:01:49.60 bitrate=N/A speed=13.3x    frame= 2763 fps=315 q=-0.0 size=N/A time=00:01:55.24 bitrate=N/A speed=13.1x    frame= 2908 fps=313 q=-0.0 size=N/A time=00:02:01.28 bitrate=N/A speed=13.1x    frame= 3068 fps=313 q=-0.0 size=N/A time=00:02:07.96 bitrate=N/A speed=  13x    frame= 3220 fps=312 q=-0.0 size=N/A time=00:02:14.30 bitrate=N/A speed=  13x    frame= 3398 fps=314 q=-0.0 size=N/A time=00:02:21.72 bitrate=N/A speed=13.1x    frame= 3588 fps=316 q=-0.0 size=N/A time=00:02:29.64 bitrate=N/A speed=13.2x    frame= 3781 fps=319 q=-0.0 size=N/A time=00:02:37.69 bitrate=N/A speed=13.3x    frame= 3980 fps=321 q=-0.0 size=N/A time=00:02:45.99 bitrate=N/A speed=13.4x    frame= 4175 fps=324 q=-0.0 size=N/A time=00:02:54.13 bitrate=N/A speed=13.5x    frame= 4365 fps=326 q=-0.0 size=N/A time=00:03:02.05 bitrate=N/A speed=13.6x    frame= 4543 fps=326 q=-0.0 size=N/A time=00:03:09.48 bitrate=N/A speed=13.6x    frame= 4733 fps=328 q=-0.0 size=N/A time=00:03:17.40 bitrate=N/A speed=13.7x    frame= 4917 fps=329 q=-0.0 size=N/A time=00:03:25.07 bitrate=N/A speed=13.7x    frame= 5112 fps=330 q=-0.0 size=N/A time=00:03:33.21 bitrate=N/A speed=13.8x    frame= 5300 fps=332 q=-0.0 size=N/A time=00:03:41.05 bitrate=N/A speed=13.8x    frame= 5491 fps=333 q=-0.0 size=N/A time=00:03:49.02 bitrate=N/A speed=13.9x    frame= 5681 fps=334 q=-0.0 size=N/A time=00:03:56.94 bitrate=N/A speed=13.9x    frame= 5876 fps=335 q=-0.0 size=N/A time=00:04:05.07 bitrate=N/A speed=  14x    frame= 6067 fps=336 q=-0.0 size=N/A time=00:04:13.04 bitrate=N/A speed=  14x    frame= 6259 fps=337 q=-0.0 size=N/A time=00:04:21.05 bitrate=N/A speed=14.1x    frame= 6448 fps=338 q=-0.0 size=N/A time=00:04:28.93 bitrate=N/A speed=14.1x    frame= 6632 fps=338 q=-0.0 size=N/A time=00:04:36.60 bitrate=N/A speed=14.1x    frame= 6814 fps=339 q=-0.0 size=N/A time=00:04:44.20 bitrate=N/A speed=14.1x    frame= 6998 fps=339 q=-0.0 size=N/A time=00:04:51.87 bitrate=N/A speed=14.1x    frame= 7187 fps=340 q=-0.0 size=N/A time=00:04:59.75 bitrate=N/A speed=14.2x    frame= 7375 fps=341 q=-0.0 size=N/A time=00:05:07.59 bitrate=N/A speed=14.2x    frame= 7564 fps=341 q=-0.0 size=N/A time=00:05:15.48 bitrate=N/A speed=14.2x    frame= 7753 fps=342 q=-0.0 size=N/A time=00:05:23.36 bitrate=N/A speed=14.2x    frame= 7934 fps=342 q=-0.0 size=N/A time=00:05:30.91 bitrate=N/A speed=14.3x    frame= 8124 fps=343 q=-0.0 size=N/A time=00:05:38.83 bitrate=N/A speed=14.3x    frame= 8321 fps=343 q=-0.0 size=N/A time=00:05:47.05 bitrate=N/A speed=14.3x    frame= 8515 fps=344 q=-0.0 size=N/A time=00:05:55.14 bitrate=N/A speed=14.3x    frame= 8700 fps=344 q=-0.0 size=N/A time=00:06:02.86 bitrate=N/A speed=14.4x    frame= 8886 fps=345 q=-0.0 size=N/A time=00:06:10.62 bitrate=N/A speed=14.4x    frame= 9076 fps=345 q=-0.0 size=N/A time=00:06:18.54 bitrate=N/A speed=14.4x    frame= 9268 fps=346 q=-0.0 size=N/A time=00:06:26.55 bitrate=N/A speed=14.4x    frame= 9444 fps=346 q=-0.0 size=N/A time=00:06:33.89 bitrate=N/A speed=14.4x    frame= 9629 fps=346 q=-0.0 size=N/A time=00:06:41.60 bitrate=N/A speed=14.4x    frame= 9818 fps=346 q=-0.0 size=N/A time=00:06:49.49 bitrate=N/A speed=14.4x    frame=10005 fps=347 q=-0.0 size=N/A time=00:06:57.29 bitrate=N/A speed=14.5x    frame=10195 fps=347 q=-0.0 size=N/A time=00:07:05.21 bitrate=N/A speed=14.5x    frame=10383 fps=347 q=-0.0 size=N/A time=00:07:13.05 bitrate=N/A speed=14.5x    frame=10572 fps=347 q=-0.0 size=N/A time=00:07:20.94 bitrate=N/A speed=14.5x    frame=10759 fps=348 q=-0.0 size=N/A time=00:07:28.73 bitrate=N/A speed=14.5x    frame=10960 fps=348 q=-0.0 size=N/A time=00:07:37.12 bitrate=N/A speed=14.5x    frame=11155 fps=349 q=-0.0 size=N/A time=00:07:45.25 bitrate=N/A speed=14.5x    frame=11343 fps=349 q=-0.0 size=N/A time=00:07:53.09 bitrate=N/A speed=14.6x    frame=11525 fps=349 q=-0.0 size=N/A time=00:08:00.68 bitrate=N/A speed=14.6x    frame=11710 fps=349 q=-0.0 size=N/A time=00:08:08.40 bitrate=N/A speed=14.6x    frame=11894 fps=349 q=-0.0 size=N/A time=00:08:16.07 bitrate=N/A speed=14.6x    frame=12090 fps=350 q=-0.0 size=N/A time=00:08:24.25 bitrate=N/A speed=14.6x    frame=12278 fps=350 q=-0.0 size=N/A time=00:08:32.09 bitrate=N/A speed=14.6x    frame=12472 fps=350 q=-0.0 size=N/A time=00:08:40.18 bitrate=N/A speed=14.6x    frame=12661 fps=351 q=-0.0 size=N/A time=00:08:48.06 bitrate=N/A speed=14.6x    frame=12849 fps=351 q=-0.0 size=N/A time=00:08:55.91 bitrate=N/A speed=14.6x    frame=13028 fps=351 q=-0.0 size=N/A time=00:09:03.37 bitrate=N/A speed=14.6x    frame=13223 fps=351 q=-0.0 size=N/A time=00:09:11.50 bitrate=N/A speed=14.6x    frame=13414 fps=351 q=-0.0 size=N/A time=00:09:19.47 bitrate=N/A speed=14.7x    frame=13600 fps=352 q=-0.0 size=N/A time=00:09:27.23 bitrate=N/A speed=14.7x    frame=13785 fps=352 q=-0.0 size=N/A time=00:09:34.94 bitrate=N/A speed=14.7x    frame=13977 fps=352 q=-0.0 size=N/A time=00:09:42.95 bitrate=N/A speed=14.7x    frame=14167 fps=352 q=-0.0 size=N/A time=00:09:50.88 bitrate=N/A speed=14.7x    frame=14357 fps=352 q=-0.0 size=N/A time=00:09:58.80 bitrate=N/A speed=14.7x    frame=14543 fps=352 q=-0.0 size=N/A time=00:10:06.56 bitrate=N/A speed=14.7x    frame=14743 fps=353 q=-0.0 size=N/A time=00:10:14.90 bitrate=N/A speed=14.7x    frame=14933 fps=353 q=-0.0 size=N/A time=00:10:22.83 bitrate=N/A speed=14.7x    frame=15128 fps=353 q=-0.0 size=N/A time=00:10:30.96 bitrate=N/A speed=14.7x    frame=15319 fps=354 q=-0.0 size=N/A time=00:10:38.92 bitrate=N/A speed=14.7x    frame=15514 fps=354 q=-0.0 size=N/A time=00:10:47.06 bitrate=N/A speed=14.8x    frame=15698 fps=354 q=-0.0 size=N/A time=00:10:54.73 bitrate=N/A speed=14.8x    frame=15888 fps=354 q=-0.0 size=N/A time=00:11:02.66 bitrate=N/A speed=14.8x    frame=16078 fps=354 q=-0.0 size=N/A time=00:11:10.58 bitrate=N/A speed=14.8x    frame=16279 fps=355 q=-0.0 size=N/A time=00:11:18.96 bitrate=N/A speed=14.8x    frame=16466 fps=355 q=-0.0 size=N/A time=00:11:26.76 bitrate=N/A speed=14.8x    frame=16653 fps=355 q=-0.0 size=N/A time=00:11:34.56 bitrate=N/A speed=14.8x    frame=16837 fps=355 q=-0.0 size=N/A time=00:11:42.24 bitrate=N/A speed=14.8x    frame=17034 fps=355 q=-0.0 size=N/A time=00:11:50.45 bitrate=N/A speed=14.8x    frame=17222 fps=355 q=-0.0 size=N/A time=00:11:58.30 bitrate=N/A speed=14.8x    frame=17416 fps=355 q=-0.0 size=N/A time=00:12:06.39 bitrate=N/A speed=14.8x    frame=17606 fps=356 q=-0.0 size=N/A time=00:12:14.31 bitrate=N/A speed=14.8x    frame=17803 fps=356 q=-0.0 size=N/A time=00:12:22.53 bitrate=N/A speed=14.8x    frame=17996 fps=356 q=-0.0 size=N/A time=00:12:30.58 bitrate=N/A speed=14.8x    frame=18185 fps=356 q=-0.0 size=N/A time=00:12:38.46 bitrate=N/A speed=14.9x    frame=18381 fps=356 q=-0.0 size=N/A time=00:12:46.64 bitrate=N/A speed=14.9x    frame=18577 fps=357 q=-0.0 size=N/A time=00:12:54.81 bitrate=N/A speed=14.9x    frame=18768 fps=357 q=-0.0 size=N/A time=00:13:02.78 bitrate=N/A speed=14.9x    frame=18942 fps=357 q=-0.0 size=N/A time=00:13:10.03 bitrate=N/A speed=14.9x    frame=19130 fps=357 q=-0.0 size=N/A time=00:13:17.88 bitrate=N/A speed=14.9x    frame=19319 fps=357 q=-0.0 size=N/A time=00:13:25.76 bitrate=N/A speed=14.9x    frame=19510 fps=357 q=-0.0 size=N/A time=00:13:33.72 bitrate=N/A speed=14.9x    frame=19689 fps=357 q=-0.0 size=N/A time=00:13:41.19 bitrate=N/A speed=14.9x    frame=19870 fps=357 q=-0.0 size=N/A time=00:13:48.74 bitrate=N/A speed=14.9x    frame=20060 fps=357 q=-0.0 size=N/A time=00:13:56.66 bitrate=N/A speed=14.9x    frame=20249 fps=357 q=-0.0 size=N/A time=00:14:04.55 bitrate=N/A speed=14.9x    frame=20437 fps=357 q=-0.0 size=N/A time=00:14:12.39 bitrate=N/A speed=14.9x    frame=20616 fps=357 q=-0.0 size=N/A time=00:14:19.85 bitrate=N/A speed=14.9x    frame=20805 fps=357 q=-0.0 size=N/A time=00:14:27.74 bitrate=N/A speed=14.9x    frame=20994 fps=357 q=-0.0 size=N/A time=00:14:35.62 bitrate=N/A speed=14.9x    frame=21185 fps=357 q=-0.0 size=N/A time=00:14:43.59 bitrate=N/A speed=14.9x    frame=21377 fps=357 q=-0.0 size=N/A time=00:14:51.59 bitrate=N/A speed=14.9x    frame=21567 fps=357 q=-0.0 size=N/A time=00:14:59.52 bitrate=N/A speed=14.9x    frame=21751 fps=357 q=-0.0 size=N/A time=00:15:07.19 bitrate=N/A speed=14.9x    frame=21937 fps=357 q=-0.0 size=N/A time=00:15:14.95 bitrate=N/A speed=14.9x    frame=22130 fps=358 q=-0.0 size=N/A time=00:15:23.00 bitrate=N/A speed=14.9x    frame=22319 fps=358 q=-0.0 size=N/A time=00:15:30.88 bitrate=N/A speed=14.9x    frame=22511 fps=358 q=-0.0 size=N/A time=00:15:38.89 bitrate=N/A speed=14.9x    frame=22702 fps=358 q=-0.0 size=N/A time=00:15:46.86 bitrate=N/A speed=14.9x    frame=22888 fps=358 q=-0.0 size=N/A time=00:15:54.62 bitrate=N/A speed=14.9x    frame=23088 fps=358 q=-0.0 size=N/A time=00:16:02.96 bitrate=N/A speed=14.9x    frame=23279 fps=358 q=-0.0 size=N/A time=00:16:10.92 bitrate=N/A speed=14.9x    frame=23471 fps=358 q=-0.0 size=N/A time=00:16:18.93 bitrate=N/A speed=14.9x    frame=23666 fps=359 q=-0.0 size=N/A time=00:16:27.06 bitrate=N/A speed=  15x    frame=23858 fps=359 q=-0.0 size=N/A time=00:16:35.07 bitrate=N/A speed=  15x    frame=24035 fps=358 q=-0.0 size=N/A time=00:16:42.45 bitrate=N/A speed=14.9x    frame=24222 fps=358 q=-0.0 size=N/A time=00:16:50.25 bitrate=N/A speed=  15x    frame=24417 fps=359 q=-0.0 size=N/A time=00:16:58.39 bitrate=N/A speed=  15x    frame=24609 fps=359 q=-0.0 size=N/A time=00:17:06.40 bitrate=N/A speed=  15x    frame=24803 fps=359 q=-0.0 size=N/A time=00:17:14.49 bitrate=N/A speed=  15x    frame=24993 fps=359 q=-0.0 size=N/A time=00:17:22.41 bitrate=N/A speed=  15x    frame=25183 fps=359 q=-0.0 size=N/A time=00:17:30.34 bitrate=N/A speed=  15x    frame=25371 fps=359 q=-0.0 size=N/A time=00:17:38.18 bitrate=N/A speed=  15x    frame=25563 fps=359 q=-0.0 size=N/A time=00:17:46.19 bitrate=N/A speed=  15x    frame=25741 fps=359 q=-0.0 size=N/A time=00:17:53.61 bitrate=N/A speed=  15x    frame=25926 fps=359 q=-0.0 size=N/A time=00:18:01.33 bitrate=N/A speed=  15x    frame=26117 fps=359 q=-0.0 size=N/A time=00:18:09.29 bitrate=N/A speed=  15x    frame=26310 fps=359 q=-0.0 size=N/A time=00:18:17.34 bitrate=N/A speed=  15x    frame=26504 fps=359 q=-0.0 size=N/A time=00:18:25.43 bitrate=N/A speed=  15x    frame=26686 fps=359 q=-0.0 size=N/A time=00:18:33.02 bitrate=N/A speed=  15x    frame=26873 fps=359 q=-0.0 size=N/A time=00:18:40.82 bitrate=N/A speed=  15x    frame=27069 fps=359 q=-0.0 size=N/A time=00:18:49.00 bitrate=N/A speed=  15x    frame=27254 fps=359 q=-0.0 size=N/A time=00:18:56.71 bitrate=N/A speed=  15x    frame=27434 fps=359 q=-0.0 size=N/A time=00:19:04.22 bitrate=N/A speed=  15x    frame=27627 fps=359 q=-0.0 size=N/A time=00:19:12.27 bitrate=N/A speed=  15x    frame=27812 fps=359 q=-0.0 size=N/A time=00:19:19.99 bitrate=N/A speed=  15x    frame=27997 fps=359 q=-0.0 size=N/A time=00:19:27.70 bitrate=N/A speed=  15x    frame=28176 fps=359 q=-0.0 size=N/A time=00:19:35.17 bitrate=N/A speed=  15x    frame=28368 fps=359 q=-0.0 size=N/A time=00:19:43.18 bitrate=N/A speed=  15x    frame=28555 fps=360 q=-0.0 size=N/A time=00:19:50.98 bitrate=N/A speed=  15x    frame=28753 fps=360 q=-0.0 size=N/A time=00:19:59.23 bitrate=N/A speed=  15x    frame=28944 fps=360 q=-0.0 size=N/A time=00:20:07.20 bitrate=N/A speed=  15x    frame=29142 fps=360 q=-0.0 size=N/A time=00:20:15.46 bitrate=N/A speed=  15x    frame=29329 fps=360 q=-0.0 size=N/A time=00:20:23.26 bitrate=N/A speed=  15x    frame=29507 fps=360 q=-0.0 size=N/A time=00:20:30.68 bitrate=N/A speed=  15x    frame=29695 fps=360 q=-0.0 size=N/A time=00:20:38.52 bitrate=N/A speed=  15x    frame=29886 fps=360 q=-0.0 size=N/A time=00:20:46.49 bitrate=N/A speed=  15x    frame=30077 fps=360 q=-0.0 size=N/A time=00:20:54.46 bitrate=N/A speed=  15x    frame=30262 fps=360 q=-0.0 size=N/A time=00:21:02.17 bitrate=N/A speed=  15x    frame=30451 fps=360 q=-0.0 size=N/A time=00:21:10.06 bitrate=N/A speed=  15x    frame=30641 fps=360 q=-0.0 size=N/A time=00:21:17.98 bitrate=N/A speed=  15x    frame=30836 fps=360 q=-0.0 size=N/A time=00:21:26.11 bitrate=N/A speed=  15x    frame=31019 fps=360 q=-0.0 size=N/A time=00:21:33.75 bitrate=N/A speed=  15x    frame=31202 fps=360 q=-0.0 size=N/A time=00:21:41.38 bitrate=N/A speed=  15x    frame=31396 fps=360 q=-0.0 size=N/A time=00:21:49.47 bitrate=N/A speed=  15x    frame=31586 fps=360 q=-0.0 size=N/A time=00:21:57.39 bitrate=N/A speed=  15x    frame=31782 fps=360 q=-0.0 size=N/A time=00:22:05.57 bitrate=N/A speed=  15x    frame=31963 fps=360 q=-0.0 size=N/A time=00:22:13.12 bitrate=N/A speed=  15x    frame=32149 fps=360 q=-0.0 size=N/A time=00:22:20.88 bitrate=N/A speed=  15x    frame=32328 fps=360 q=-0.0 size=N/A time=00:22:28.34 bitrate=N/A speed=  15x    frame=32502 fps=360 q=-0.0 size=N/A time=00:22:35.60 bitrate=N/A speed=  15x    frame=32681 fps=360 q=-0.0 size=N/A time=00:22:43.07 bitrate=N/A speed=  15x    frame=32863 fps=360 q=-0.0 size=N/A time=00:22:50.66 bitrate=N/A speed=  15x    frame=33047 fps=360 q=-0.0 size=N/A time=00:22:58.33 bitrate=N/A speed=  15x    frame=33226 fps=360 q=-0.0 size=N/A time=00:23:05.80 bitrate=N/A speed=  15x    frame=33397 fps=360 q=-0.0 size=N/A time=00:23:12.93 bitrate=N/A speed=  15x    frame=33580 fps=360 q=-0.0 size=N/A time=00:23:20.56 bitrate=N/A speed=  15x    frame=33762 fps=360 q=-0.0 size=N/A time=00:23:28.15 bitrate=N/A speed=  15x    frame=33934 fps=360 q=-0.0 size=N/A time=00:23:35.33 bitrate=N/A speed=  15x    frame=34116 fps=360 q=-0.0 size=N/A time=00:23:42.92 bitrate=N/A speed=  15x    [Parsed_ssim_16 @ 0000012d33f74800] SSIM Y:0.994003 (22.220914) U:0.995568 (23.534477) V:0.995209 (23.195907) All:0.994465 (22.568965)
[out#0/null @ 0000012d3073ae00] video:14725KiB audio:268020KiB subtitle:0KiB other streams:0KiB global headers:0KiB muxing overhead: unknown
frame=34270 fps=360 q=-0.0 Lsize=N/A time=00:23:49.34 bitrate=N/A speed=  15x    
